<mxfile host="app.diagrams.net" modified="2024-01-10T12:44:39.601Z" agent="Mozilla/5.0 (Windows NT 10.0; Win64; x64) AppleWebKit/537.36 (KHTML, like Gecko) Chrome/120.0.0.0 Safari/537.36" etag="oZ0gnHOepBTb8F4g83F1" version="22.1.18" type="github" pages="7">
  <diagram id="C5RBs43oDa-KdzZeNtuy" name="main">
    <mxGraphModel dx="1538" dy="2010" grid="1" gridSize="10" guides="1" tooltips="1" connect="1" arrows="1" fold="1" page="1" pageScale="1" pageWidth="827" pageHeight="1169" math="0" shadow="0">
      <root>
        <mxCell id="WIyWlLk6GJQsqaUBKTNV-0" />
        <mxCell id="WIyWlLk6GJQsqaUBKTNV-1" parent="WIyWlLk6GJQsqaUBKTNV-0" />
        <mxCell id="lJQGvzcA9P9ix7J3SOd5-3" value="" style="edgeStyle=orthogonalEdgeStyle;rounded=0;orthogonalLoop=1;jettySize=auto;html=1;" edge="1" parent="WIyWlLk6GJQsqaUBKTNV-1" source="lJQGvzcA9P9ix7J3SOd5-0" target="lJQGvzcA9P9ix7J3SOd5-2">
          <mxGeometry relative="1" as="geometry" />
        </mxCell>
        <mxCell id="lJQGvzcA9P9ix7J3SOd5-4" style="edgeStyle=orthogonalEdgeStyle;rounded=0;orthogonalLoop=1;jettySize=auto;html=1;" edge="1" parent="WIyWlLk6GJQsqaUBKTNV-1" source="lJQGvzcA9P9ix7J3SOd5-0">
          <mxGeometry relative="1" as="geometry">
            <mxPoint x="414.0000000000001" y="60" as="targetPoint" />
          </mxGeometry>
        </mxCell>
        <mxCell id="lJQGvzcA9P9ix7J3SOd5-0" value="начало" style="ellipse;whiteSpace=wrap;html=1;" vertex="1" parent="WIyWlLk6GJQsqaUBKTNV-1">
          <mxGeometry x="367" y="10" width="94" height="30" as="geometry" />
        </mxCell>
        <mxCell id="lJQGvzcA9P9ix7J3SOd5-1" value="str&lt;br&gt;list" style="rounded=0;whiteSpace=wrap;html=1;" vertex="1" parent="WIyWlLk6GJQsqaUBKTNV-1">
          <mxGeometry x="382" y="60" width="64" height="30" as="geometry" />
        </mxCell>
        <mxCell id="lJQGvzcA9P9ix7J3SOd5-6" style="edgeStyle=orthogonalEdgeStyle;rounded=0;orthogonalLoop=1;jettySize=auto;html=1;exitX=1;exitY=0.5;exitDx=0;exitDy=0;entryX=0.5;entryY=0;entryDx=0;entryDy=0;" edge="1" parent="WIyWlLk6GJQsqaUBKTNV-1" source="lJQGvzcA9P9ix7J3SOd5-2" target="lJQGvzcA9P9ix7J3SOd5-5">
          <mxGeometry relative="1" as="geometry" />
        </mxCell>
        <mxCell id="lJQGvzcA9P9ix7J3SOd5-8" style="edgeStyle=orthogonalEdgeStyle;rounded=0;orthogonalLoop=1;jettySize=auto;html=1;exitX=0;exitY=0.5;exitDx=0;exitDy=0;entryX=0.5;entryY=0;entryDx=0;entryDy=0;" edge="1" parent="WIyWlLk6GJQsqaUBKTNV-1" source="lJQGvzcA9P9ix7J3SOd5-2" target="lJQGvzcA9P9ix7J3SOd5-7">
          <mxGeometry relative="1" as="geometry">
            <Array as="points">
              <mxPoint x="269" y="145" />
              <mxPoint x="269" y="300" />
              <mxPoint x="414" y="300" />
            </Array>
          </mxGeometry>
        </mxCell>
        <mxCell id="lJQGvzcA9P9ix7J3SOd5-2" value="(str = get_word(&quot; \t&quot;)) &amp;&amp; strlen(str)" style="rhombus;whiteSpace=wrap;html=1;" vertex="1" parent="WIyWlLk6GJQsqaUBKTNV-1">
          <mxGeometry x="289" y="110" width="250" height="70" as="geometry" />
        </mxCell>
        <mxCell id="lJQGvzcA9P9ix7J3SOd5-5" value="add_head(list,str)" style="shape=process;whiteSpace=wrap;html=1;backgroundOutline=1;" vertex="1" parent="WIyWlLk6GJQsqaUBKTNV-1">
          <mxGeometry x="354" y="220" width="120" height="60" as="geometry" />
        </mxCell>
        <mxCell id="lJQGvzcA9P9ix7J3SOd5-11" value="" style="edgeStyle=orthogonalEdgeStyle;rounded=0;orthogonalLoop=1;jettySize=auto;html=1;" edge="1" parent="WIyWlLk6GJQsqaUBKTNV-1" source="lJQGvzcA9P9ix7J3SOd5-7" target="lJQGvzcA9P9ix7J3SOd5-10">
          <mxGeometry relative="1" as="geometry" />
        </mxCell>
        <mxCell id="lJQGvzcA9P9ix7J3SOd5-7" value="sort(list)&lt;br&gt;display_list(list)" style="shape=process;whiteSpace=wrap;html=1;backgroundOutline=1;" vertex="1" parent="WIyWlLk6GJQsqaUBKTNV-1">
          <mxGeometry x="354" y="330" width="120" height="60" as="geometry" />
        </mxCell>
        <mxCell id="lJQGvzcA9P9ix7J3SOd5-13" value="" style="edgeStyle=orthogonalEdgeStyle;rounded=0;orthogonalLoop=1;jettySize=auto;html=1;" edge="1" parent="WIyWlLk6GJQsqaUBKTNV-1" source="lJQGvzcA9P9ix7J3SOd5-10" target="lJQGvzcA9P9ix7J3SOd5-12">
          <mxGeometry relative="1" as="geometry" />
        </mxCell>
        <mxCell id="lJQGvzcA9P9ix7J3SOd5-10" value="(a) - del\n(b) - insert before\n(c) - next\n" style="shape=parallelogram;perimeter=parallelogramPerimeter;whiteSpace=wrap;html=1;fixedSize=1;" vertex="1" parent="WIyWlLk6GJQsqaUBKTNV-1">
          <mxGeometry x="342" y="410" width="144" height="60" as="geometry" />
        </mxCell>
        <mxCell id="lJQGvzcA9P9ix7J3SOd5-15" style="edgeStyle=orthogonalEdgeStyle;rounded=0;orthogonalLoop=1;jettySize=auto;html=1;exitX=1;exitY=0.5;exitDx=0;exitDy=0;entryX=0.5;entryY=0;entryDx=0;entryDy=0;" edge="1" parent="WIyWlLk6GJQsqaUBKTNV-1" source="lJQGvzcA9P9ix7J3SOd5-12" target="lJQGvzcA9P9ix7J3SOd5-14">
          <mxGeometry relative="1" as="geometry" />
        </mxCell>
        <mxCell id="lJQGvzcA9P9ix7J3SOd5-49" style="edgeStyle=orthogonalEdgeStyle;rounded=0;orthogonalLoop=1;jettySize=auto;html=1;exitX=0;exitY=0.5;exitDx=0;exitDy=0;entryX=0.5;entryY=0;entryDx=0;entryDy=0;" edge="1" parent="WIyWlLk6GJQsqaUBKTNV-1" source="lJQGvzcA9P9ix7J3SOd5-12" target="lJQGvzcA9P9ix7J3SOd5-48">
          <mxGeometry relative="1" as="geometry" />
        </mxCell>
        <mxCell id="lJQGvzcA9P9ix7J3SOd5-12" value="(tmp = getchar()) != EOF" style="rhombus;whiteSpace=wrap;html=1;" vertex="1" parent="WIyWlLk6GJQsqaUBKTNV-1">
          <mxGeometry x="332" y="490" width="164" height="70" as="geometry" />
        </mxCell>
        <mxCell id="lJQGvzcA9P9ix7J3SOd5-17" style="edgeStyle=orthogonalEdgeStyle;rounded=0;orthogonalLoop=1;jettySize=auto;html=1;exitX=1;exitY=0.5;exitDx=0;exitDy=0;entryX=0.5;entryY=0;entryDx=0;entryDy=0;" edge="1" parent="WIyWlLk6GJQsqaUBKTNV-1" source="lJQGvzcA9P9ix7J3SOd5-14" target="lJQGvzcA9P9ix7J3SOd5-16">
          <mxGeometry relative="1" as="geometry" />
        </mxCell>
        <mxCell id="lJQGvzcA9P9ix7J3SOd5-28" style="edgeStyle=orthogonalEdgeStyle;rounded=0;orthogonalLoop=1;jettySize=auto;html=1;exitX=0;exitY=0.5;exitDx=0;exitDy=0;entryX=0.5;entryY=0;entryDx=0;entryDy=0;" edge="1" parent="WIyWlLk6GJQsqaUBKTNV-1" source="lJQGvzcA9P9ix7J3SOd5-14" target="lJQGvzcA9P9ix7J3SOd5-27">
          <mxGeometry relative="1" as="geometry" />
        </mxCell>
        <mxCell id="lJQGvzcA9P9ix7J3SOd5-14" value="tmp==&#39;a&#39;" style="rhombus;whiteSpace=wrap;html=1;" vertex="1" parent="WIyWlLk6GJQsqaUBKTNV-1">
          <mxGeometry x="374" y="610" width="80" height="80" as="geometry" />
        </mxCell>
        <mxCell id="lJQGvzcA9P9ix7J3SOd5-19" value="" style="edgeStyle=orthogonalEdgeStyle;rounded=0;orthogonalLoop=1;jettySize=auto;html=1;" edge="1" parent="WIyWlLk6GJQsqaUBKTNV-1" source="lJQGvzcA9P9ix7J3SOd5-16" target="lJQGvzcA9P9ix7J3SOd5-18">
          <mxGeometry relative="1" as="geometry" />
        </mxCell>
        <mxCell id="lJQGvzcA9P9ix7J3SOd5-16" value="Введите слово" style="shape=parallelogram;perimeter=parallelogramPerimeter;whiteSpace=wrap;html=1;fixedSize=1;" vertex="1" parent="WIyWlLk6GJQsqaUBKTNV-1">
          <mxGeometry x="354" y="730" width="120" height="60" as="geometry" />
        </mxCell>
        <mxCell id="lJQGvzcA9P9ix7J3SOd5-21" value="" style="edgeStyle=orthogonalEdgeStyle;rounded=0;orthogonalLoop=1;jettySize=auto;html=1;" edge="1" parent="WIyWlLk6GJQsqaUBKTNV-1" source="lJQGvzcA9P9ix7J3SOd5-18" target="lJQGvzcA9P9ix7J3SOd5-20">
          <mxGeometry relative="1" as="geometry" />
        </mxCell>
        <mxCell id="lJQGvzcA9P9ix7J3SOd5-18" value="Чтение слова" style="shape=parallelogram;perimeter=parallelogramPerimeter;whiteSpace=wrap;html=1;fixedSize=1;" vertex="1" parent="WIyWlLk6GJQsqaUBKTNV-1">
          <mxGeometry x="354" y="870" width="120" height="60" as="geometry" />
        </mxCell>
        <mxCell id="lJQGvzcA9P9ix7J3SOd5-23" style="edgeStyle=orthogonalEdgeStyle;rounded=0;orthogonalLoop=1;jettySize=auto;html=1;exitX=1;exitY=0.5;exitDx=0;exitDy=0;entryX=0.5;entryY=0;entryDx=0;entryDy=0;" edge="1" parent="WIyWlLk6GJQsqaUBKTNV-1" source="lJQGvzcA9P9ix7J3SOd5-20" target="lJQGvzcA9P9ix7J3SOd5-22">
          <mxGeometry relative="1" as="geometry" />
        </mxCell>
        <mxCell id="lJQGvzcA9P9ix7J3SOd5-25" style="edgeStyle=orthogonalEdgeStyle;rounded=0;orthogonalLoop=1;jettySize=auto;html=1;exitX=0;exitY=0.5;exitDx=0;exitDy=0;entryX=0.5;entryY=0;entryDx=0;entryDy=0;" edge="1" parent="WIyWlLk6GJQsqaUBKTNV-1" source="lJQGvzcA9P9ix7J3SOd5-20" target="lJQGvzcA9P9ix7J3SOd5-24">
          <mxGeometry relative="1" as="geometry">
            <Array as="points">
              <mxPoint x="312" y="1000" />
              <mxPoint x="312" y="1160" />
              <mxPoint x="414" y="1160" />
            </Array>
          </mxGeometry>
        </mxCell>
        <mxCell id="lJQGvzcA9P9ix7J3SOd5-20" value="(del = get_node(&amp;amp;list, str))" style="rhombus;whiteSpace=wrap;html=1;" vertex="1" parent="WIyWlLk6GJQsqaUBKTNV-1">
          <mxGeometry x="332" y="960" width="164" height="80" as="geometry" />
        </mxCell>
        <mxCell id="lJQGvzcA9P9ix7J3SOd5-26" value="" style="edgeStyle=orthogonalEdgeStyle;rounded=0;orthogonalLoop=1;jettySize=auto;html=1;" edge="1" parent="WIyWlLk6GJQsqaUBKTNV-1" source="lJQGvzcA9P9ix7J3SOd5-22" target="lJQGvzcA9P9ix7J3SOd5-24">
          <mxGeometry relative="1" as="geometry" />
        </mxCell>
        <mxCell id="lJQGvzcA9P9ix7J3SOd5-22" value="delete_node(list,del)" style="shape=process;whiteSpace=wrap;html=1;backgroundOutline=1;" vertex="1" parent="WIyWlLk6GJQsqaUBKTNV-1">
          <mxGeometry x="337" y="1080" width="153" height="60" as="geometry" />
        </mxCell>
        <mxCell id="lJQGvzcA9P9ix7J3SOd5-46" style="edgeStyle=orthogonalEdgeStyle;rounded=0;orthogonalLoop=1;jettySize=auto;html=1;exitX=0.5;exitY=1;exitDx=0;exitDy=0;entryX=0.5;entryY=0;entryDx=0;entryDy=0;" edge="1" parent="WIyWlLk6GJQsqaUBKTNV-1" source="lJQGvzcA9P9ix7J3SOd5-24" target="lJQGvzcA9P9ix7J3SOd5-43">
          <mxGeometry relative="1" as="geometry" />
        </mxCell>
        <mxCell id="lJQGvzcA9P9ix7J3SOd5-24" value="display_list(list)" style="shape=process;whiteSpace=wrap;html=1;backgroundOutline=1;" vertex="1" parent="WIyWlLk6GJQsqaUBKTNV-1">
          <mxGeometry x="354" y="1180" width="120" height="60" as="geometry" />
        </mxCell>
        <mxCell id="lJQGvzcA9P9ix7J3SOd5-31" style="edgeStyle=orthogonalEdgeStyle;rounded=0;orthogonalLoop=1;jettySize=auto;html=1;exitX=1;exitY=0.5;exitDx=0;exitDy=0;entryX=0.5;entryY=0;entryDx=0;entryDy=0;" edge="1" parent="WIyWlLk6GJQsqaUBKTNV-1" source="lJQGvzcA9P9ix7J3SOd5-27" target="lJQGvzcA9P9ix7J3SOd5-29">
          <mxGeometry relative="1" as="geometry" />
        </mxCell>
        <mxCell id="lJQGvzcA9P9ix7J3SOd5-39" style="edgeStyle=orthogonalEdgeStyle;rounded=0;orthogonalLoop=1;jettySize=auto;html=1;exitX=0;exitY=0.5;exitDx=0;exitDy=0;entryX=0.5;entryY=0;entryDx=0;entryDy=0;" edge="1" parent="WIyWlLk6GJQsqaUBKTNV-1" source="lJQGvzcA9P9ix7J3SOd5-27" target="lJQGvzcA9P9ix7J3SOd5-38">
          <mxGeometry relative="1" as="geometry" />
        </mxCell>
        <mxCell id="lJQGvzcA9P9ix7J3SOd5-27" value="tmp==&#39;b&#39;" style="rhombus;whiteSpace=wrap;html=1;" vertex="1" parent="WIyWlLk6GJQsqaUBKTNV-1">
          <mxGeometry x="190" y="720" width="80" height="80" as="geometry" />
        </mxCell>
        <mxCell id="lJQGvzcA9P9ix7J3SOd5-33" value="" style="edgeStyle=orthogonalEdgeStyle;rounded=0;orthogonalLoop=1;jettySize=auto;html=1;" edge="1" parent="WIyWlLk6GJQsqaUBKTNV-1" source="lJQGvzcA9P9ix7J3SOd5-29" target="lJQGvzcA9P9ix7J3SOd5-32">
          <mxGeometry relative="1" as="geometry" />
        </mxCell>
        <mxCell id="lJQGvzcA9P9ix7J3SOd5-29" value="Введите перед каким словом и само слово" style="shape=parallelogram;perimeter=parallelogramPerimeter;whiteSpace=wrap;html=1;fixedSize=1;" vertex="1" parent="WIyWlLk6GJQsqaUBKTNV-1">
          <mxGeometry x="169" y="870" width="120" height="60" as="geometry" />
        </mxCell>
        <mxCell id="lJQGvzcA9P9ix7J3SOd5-35" value="" style="edgeStyle=orthogonalEdgeStyle;rounded=0;orthogonalLoop=1;jettySize=auto;html=1;" edge="1" parent="WIyWlLk6GJQsqaUBKTNV-1" source="lJQGvzcA9P9ix7J3SOd5-32" target="lJQGvzcA9P9ix7J3SOd5-34">
          <mxGeometry relative="1" as="geometry" />
        </mxCell>
        <mxCell id="lJQGvzcA9P9ix7J3SOd5-32" value="Ввод обоих слов" style="shape=parallelogram;perimeter=parallelogramPerimeter;whiteSpace=wrap;html=1;fixedSize=1;" vertex="1" parent="WIyWlLk6GJQsqaUBKTNV-1">
          <mxGeometry x="170" y="970" width="120" height="60" as="geometry" />
        </mxCell>
        <mxCell id="lJQGvzcA9P9ix7J3SOd5-37" value="" style="edgeStyle=orthogonalEdgeStyle;rounded=0;orthogonalLoop=1;jettySize=auto;html=1;" edge="1" parent="WIyWlLk6GJQsqaUBKTNV-1" source="lJQGvzcA9P9ix7J3SOd5-34" target="lJQGvzcA9P9ix7J3SOd5-36">
          <mxGeometry relative="1" as="geometry" />
        </mxCell>
        <mxCell id="lJQGvzcA9P9ix7J3SOd5-34" value="insert(list,&lt;br&gt;get_node(list,str),str2)" style="shape=process;whiteSpace=wrap;html=1;backgroundOutline=1;" vertex="1" parent="WIyWlLk6GJQsqaUBKTNV-1">
          <mxGeometry x="149" y="1080" width="160" height="60" as="geometry" />
        </mxCell>
        <mxCell id="lJQGvzcA9P9ix7J3SOd5-45" value="" style="edgeStyle=orthogonalEdgeStyle;rounded=0;orthogonalLoop=1;jettySize=auto;html=1;" edge="1" parent="WIyWlLk6GJQsqaUBKTNV-1" source="lJQGvzcA9P9ix7J3SOd5-36" target="lJQGvzcA9P9ix7J3SOd5-43">
          <mxGeometry relative="1" as="geometry" />
        </mxCell>
        <mxCell id="lJQGvzcA9P9ix7J3SOd5-36" value="display_list(list)" style="shape=process;whiteSpace=wrap;html=1;backgroundOutline=1;" vertex="1" parent="WIyWlLk6GJQsqaUBKTNV-1">
          <mxGeometry x="170" y="1180" width="120" height="60" as="geometry" />
        </mxCell>
        <mxCell id="lJQGvzcA9P9ix7J3SOd5-41" style="edgeStyle=orthogonalEdgeStyle;rounded=0;orthogonalLoop=1;jettySize=auto;html=1;exitX=1;exitY=0.5;exitDx=0;exitDy=0;entryX=0.5;entryY=0;entryDx=0;entryDy=0;" edge="1" parent="WIyWlLk6GJQsqaUBKTNV-1" source="lJQGvzcA9P9ix7J3SOd5-38" target="lJQGvzcA9P9ix7J3SOd5-40">
          <mxGeometry relative="1" as="geometry" />
        </mxCell>
        <mxCell id="lJQGvzcA9P9ix7J3SOd5-42" style="edgeStyle=orthogonalEdgeStyle;rounded=0;orthogonalLoop=1;jettySize=auto;html=1;exitX=0;exitY=0.5;exitDx=0;exitDy=0;entryX=0.5;entryY=0;entryDx=0;entryDy=0;" edge="1" parent="WIyWlLk6GJQsqaUBKTNV-1" source="lJQGvzcA9P9ix7J3SOd5-38" target="lJQGvzcA9P9ix7J3SOd5-40">
          <mxGeometry relative="1" as="geometry" />
        </mxCell>
        <mxCell id="lJQGvzcA9P9ix7J3SOd5-38" value="tmp==&#39;c&#39;" style="rhombus;whiteSpace=wrap;html=1;" vertex="1" parent="WIyWlLk6GJQsqaUBKTNV-1">
          <mxGeometry x="40" y="860" width="80" height="80" as="geometry" />
        </mxCell>
        <mxCell id="lJQGvzcA9P9ix7J3SOd5-44" style="edgeStyle=orthogonalEdgeStyle;rounded=0;orthogonalLoop=1;jettySize=auto;html=1;exitX=0.5;exitY=1;exitDx=0;exitDy=0;entryX=0.5;entryY=0;entryDx=0;entryDy=0;" edge="1" parent="WIyWlLk6GJQsqaUBKTNV-1" source="lJQGvzcA9P9ix7J3SOd5-40" target="lJQGvzcA9P9ix7J3SOd5-43">
          <mxGeometry relative="1" as="geometry">
            <Array as="points">
              <mxPoint x="75" y="1260" />
              <mxPoint x="229" y="1260" />
            </Array>
          </mxGeometry>
        </mxCell>
        <mxCell id="lJQGvzcA9P9ix7J3SOd5-40" value="break" style="rounded=0;whiteSpace=wrap;html=1;" vertex="1" parent="WIyWlLk6GJQsqaUBKTNV-1">
          <mxGeometry x="31" y="990" width="89" height="30" as="geometry" />
        </mxCell>
        <mxCell id="lJQGvzcA9P9ix7J3SOd5-47" style="edgeStyle=orthogonalEdgeStyle;rounded=0;orthogonalLoop=1;jettySize=auto;html=1;exitX=0.5;exitY=1;exitDx=0;exitDy=0;entryX=0.5;entryY=0;entryDx=0;entryDy=0;" edge="1" parent="WIyWlLk6GJQsqaUBKTNV-1" source="lJQGvzcA9P9ix7J3SOd5-43" target="lJQGvzcA9P9ix7J3SOd5-12">
          <mxGeometry relative="1" as="geometry">
            <Array as="points">
              <mxPoint x="229" y="1390" />
              <mxPoint x="560" y="1390" />
              <mxPoint x="560" y="470" />
              <mxPoint x="414" y="470" />
            </Array>
          </mxGeometry>
        </mxCell>
        <mxCell id="lJQGvzcA9P9ix7J3SOd5-43" value="(a) - del\n(b) - insert before\n(c) - next\n" style="shape=parallelogram;perimeter=parallelogramPerimeter;whiteSpace=wrap;html=1;fixedSize=1;" vertex="1" parent="WIyWlLk6GJQsqaUBKTNV-1">
          <mxGeometry x="157" y="1310" width="144" height="60" as="geometry" />
        </mxCell>
        <mxCell id="lJQGvzcA9P9ix7J3SOd5-48" value="return 0" style="ellipse;whiteSpace=wrap;html=1;" vertex="1" parent="WIyWlLk6GJQsqaUBKTNV-1">
          <mxGeometry x="60" y="633.33" width="50" height="33.33" as="geometry" />
        </mxCell>
        <mxCell id="DPnKdJPsl3OByLgZ6JsH-0" value="1" style="text;html=1;strokeColor=none;fillColor=none;align=center;verticalAlign=middle;whiteSpace=wrap;rounded=0;" vertex="1" parent="WIyWlLk6GJQsqaUBKTNV-1">
          <mxGeometry x="55" y="-50" width="60" height="30" as="geometry" />
        </mxCell>
        <mxCell id="DPnKdJPsl3OByLgZ6JsH-1" value="2" style="text;html=1;strokeColor=none;fillColor=none;align=center;verticalAlign=middle;whiteSpace=wrap;rounded=0;" vertex="1" parent="WIyWlLk6GJQsqaUBKTNV-1">
          <mxGeometry x="200" y="-50" width="60" height="30" as="geometry" />
        </mxCell>
        <mxCell id="DPnKdJPsl3OByLgZ6JsH-2" value="3" style="text;html=1;strokeColor=none;fillColor=none;align=center;verticalAlign=middle;whiteSpace=wrap;rounded=0;" vertex="1" parent="WIyWlLk6GJQsqaUBKTNV-1">
          <mxGeometry x="382" y="-50" width="60" height="30" as="geometry" />
        </mxCell>
        <mxCell id="DPnKdJPsl3OByLgZ6JsH-3" value="A" style="text;html=1;strokeColor=none;fillColor=none;align=center;verticalAlign=middle;whiteSpace=wrap;rounded=0;" vertex="1" parent="WIyWlLk6GJQsqaUBKTNV-1">
          <mxGeometry x="-29" y="10" width="60" height="30" as="geometry" />
        </mxCell>
        <mxCell id="DPnKdJPsl3OByLgZ6JsH-4" value="B" style="text;html=1;strokeColor=none;fillColor=none;align=center;verticalAlign=middle;whiteSpace=wrap;rounded=0;" vertex="1" parent="WIyWlLk6GJQsqaUBKTNV-1">
          <mxGeometry x="-29" y="130" width="60" height="30" as="geometry" />
        </mxCell>
        <mxCell id="DPnKdJPsl3OByLgZ6JsH-5" value="C" style="text;html=1;strokeColor=none;fillColor=none;align=center;verticalAlign=middle;whiteSpace=wrap;rounded=0;" vertex="1" parent="WIyWlLk6GJQsqaUBKTNV-1">
          <mxGeometry x="-29" y="220" width="60" height="30" as="geometry" />
        </mxCell>
        <mxCell id="DPnKdJPsl3OByLgZ6JsH-6" value="D" style="text;html=1;strokeColor=none;fillColor=none;align=center;verticalAlign=middle;whiteSpace=wrap;rounded=0;" vertex="1" parent="WIyWlLk6GJQsqaUBKTNV-1">
          <mxGeometry x="-29" y="345" width="60" height="30" as="geometry" />
        </mxCell>
        <mxCell id="DPnKdJPsl3OByLgZ6JsH-7" value="E" style="text;html=1;strokeColor=none;fillColor=none;align=center;verticalAlign=middle;whiteSpace=wrap;rounded=0;" vertex="1" parent="WIyWlLk6GJQsqaUBKTNV-1">
          <mxGeometry x="-29" y="425" width="60" height="30" as="geometry" />
        </mxCell>
        <mxCell id="DPnKdJPsl3OByLgZ6JsH-8" value="F" style="text;html=1;strokeColor=none;fillColor=none;align=center;verticalAlign=middle;whiteSpace=wrap;rounded=0;" vertex="1" parent="WIyWlLk6GJQsqaUBKTNV-1">
          <mxGeometry x="-29" y="510" width="60" height="30" as="geometry" />
        </mxCell>
        <mxCell id="DPnKdJPsl3OByLgZ6JsH-9" value="G" style="text;html=1;strokeColor=none;fillColor=none;align=center;verticalAlign=middle;whiteSpace=wrap;rounded=0;" vertex="1" parent="WIyWlLk6GJQsqaUBKTNV-1">
          <mxGeometry x="-29" y="633.33" width="60" height="30" as="geometry" />
        </mxCell>
        <mxCell id="DPnKdJPsl3OByLgZ6JsH-10" value="H" style="text;html=1;strokeColor=none;fillColor=none;align=center;verticalAlign=middle;whiteSpace=wrap;rounded=0;" vertex="1" parent="WIyWlLk6GJQsqaUBKTNV-1">
          <mxGeometry x="-29" y="745" width="60" height="30" as="geometry" />
        </mxCell>
        <mxCell id="DPnKdJPsl3OByLgZ6JsH-11" value="I" style="text;html=1;strokeColor=none;fillColor=none;align=center;verticalAlign=middle;whiteSpace=wrap;rounded=0;" vertex="1" parent="WIyWlLk6GJQsqaUBKTNV-1">
          <mxGeometry x="-29" y="885" width="60" height="30" as="geometry" />
        </mxCell>
        <mxCell id="DPnKdJPsl3OByLgZ6JsH-12" value="J" style="text;html=1;strokeColor=none;fillColor=none;align=center;verticalAlign=middle;whiteSpace=wrap;rounded=0;" vertex="1" parent="WIyWlLk6GJQsqaUBKTNV-1">
          <mxGeometry x="-40" y="985" width="60" height="30" as="geometry" />
        </mxCell>
        <mxCell id="DPnKdJPsl3OByLgZ6JsH-13" value="K" style="text;html=1;strokeColor=none;fillColor=none;align=center;verticalAlign=middle;whiteSpace=wrap;rounded=0;" vertex="1" parent="WIyWlLk6GJQsqaUBKTNV-1">
          <mxGeometry x="-40" y="1090" width="60" height="30" as="geometry" />
        </mxCell>
        <mxCell id="DPnKdJPsl3OByLgZ6JsH-14" value="L" style="text;html=1;strokeColor=none;fillColor=none;align=center;verticalAlign=middle;whiteSpace=wrap;rounded=0;" vertex="1" parent="WIyWlLk6GJQsqaUBKTNV-1">
          <mxGeometry x="-29" y="1195" width="60" height="30" as="geometry" />
        </mxCell>
        <mxCell id="DPnKdJPsl3OByLgZ6JsH-15" value="M" style="text;html=1;strokeColor=none;fillColor=none;align=center;verticalAlign=middle;whiteSpace=wrap;rounded=0;" vertex="1" parent="WIyWlLk6GJQsqaUBKTNV-1">
          <mxGeometry x="-29" y="1320" width="60" height="30" as="geometry" />
        </mxCell>
      </root>
    </mxGraphModel>
  </diagram>
  <diagram id="ANfeCZEl69In2TGxdd1T" name="add_head">
    <mxGraphModel dx="586" dy="1793" grid="1" gridSize="10" guides="1" tooltips="1" connect="1" arrows="1" fold="1" page="1" pageScale="1" pageWidth="850" pageHeight="1100" math="0" shadow="0">
      <root>
        <mxCell id="0" />
        <mxCell id="1" parent="0" />
        <mxCell id="tsOh3CpH0ZqvVloPl-19-4" value="" style="edgeStyle=orthogonalEdgeStyle;rounded=0;orthogonalLoop=1;jettySize=auto;html=1;" edge="1" parent="1" source="tsOh3CpH0ZqvVloPl-19-1" target="tsOh3CpH0ZqvVloPl-19-3">
          <mxGeometry relative="1" as="geometry" />
        </mxCell>
        <mxCell id="tsOh3CpH0ZqvVloPl-19-5" style="edgeStyle=orthogonalEdgeStyle;rounded=0;orthogonalLoop=1;jettySize=auto;html=1;exitX=0.5;exitY=1;exitDx=0;exitDy=0;entryX=0.5;entryY=0;entryDx=0;entryDy=0;" edge="1" parent="1" source="tsOh3CpH0ZqvVloPl-19-1" target="tsOh3CpH0ZqvVloPl-19-2">
          <mxGeometry relative="1" as="geometry" />
        </mxCell>
        <mxCell id="tsOh3CpH0ZqvVloPl-19-1" value="add_head(list,data)" style="ellipse;whiteSpace=wrap;html=1;" vertex="1" parent="1">
          <mxGeometry x="340" y="20" width="120" height="80" as="geometry" />
        </mxCell>
        <mxCell id="tsOh3CpH0ZqvVloPl-19-2" value="node=malloc()" style="shape=process;whiteSpace=wrap;html=1;backgroundOutline=1;" vertex="1" parent="1">
          <mxGeometry x="340" y="120" width="120" height="60" as="geometry" />
        </mxCell>
        <mxCell id="tsOh3CpH0ZqvVloPl-19-7" value="" style="edgeStyle=orthogonalEdgeStyle;rounded=0;orthogonalLoop=1;jettySize=auto;html=1;" edge="1" parent="1" source="tsOh3CpH0ZqvVloPl-19-3" target="tsOh3CpH0ZqvVloPl-19-6">
          <mxGeometry relative="1" as="geometry" />
        </mxCell>
        <mxCell id="tsOh3CpH0ZqvVloPl-19-3" value="node-&amp;gt;data=data" style="rounded=0;whiteSpace=wrap;html=1;" vertex="1" parent="1">
          <mxGeometry x="340" y="200" width="120" height="60" as="geometry" />
        </mxCell>
        <mxCell id="tsOh3CpH0ZqvVloPl-19-10" style="edgeStyle=orthogonalEdgeStyle;rounded=0;orthogonalLoop=1;jettySize=auto;html=1;exitX=0;exitY=0.5;exitDx=0;exitDy=0;entryX=0.5;entryY=0;entryDx=0;entryDy=0;" edge="1" parent="1" source="tsOh3CpH0ZqvVloPl-19-6" target="tsOh3CpH0ZqvVloPl-19-9">
          <mxGeometry relative="1" as="geometry" />
        </mxCell>
        <mxCell id="tsOh3CpH0ZqvVloPl-19-11" style="edgeStyle=orthogonalEdgeStyle;rounded=0;orthogonalLoop=1;jettySize=auto;html=1;exitX=1;exitY=0.5;exitDx=0;exitDy=0;entryX=0.5;entryY=0;entryDx=0;entryDy=0;" edge="1" parent="1" source="tsOh3CpH0ZqvVloPl-19-6" target="tsOh3CpH0ZqvVloPl-19-8">
          <mxGeometry relative="1" as="geometry" />
        </mxCell>
        <mxCell id="tsOh3CpH0ZqvVloPl-19-6" value="list-&amp;gt;head==NULL" style="rhombus;whiteSpace=wrap;html=1;" vertex="1" parent="1">
          <mxGeometry x="335" y="280" width="130" height="70" as="geometry" />
        </mxCell>
        <mxCell id="tsOh3CpH0ZqvVloPl-19-14" style="edgeStyle=orthogonalEdgeStyle;rounded=0;orthogonalLoop=1;jettySize=auto;html=1;exitX=0.5;exitY=1;exitDx=0;exitDy=0;" edge="1" parent="1" source="tsOh3CpH0ZqvVloPl-19-8">
          <mxGeometry relative="1" as="geometry">
            <mxPoint x="400" y="470" as="targetPoint" />
          </mxGeometry>
        </mxCell>
        <mxCell id="tsOh3CpH0ZqvVloPl-19-8" value="node-&amp;gt;next=NULL" style="rounded=0;whiteSpace=wrap;html=1;" vertex="1" parent="1">
          <mxGeometry x="480" y="350" width="120" height="60" as="geometry" />
        </mxCell>
        <mxCell id="tsOh3CpH0ZqvVloPl-19-13" style="edgeStyle=orthogonalEdgeStyle;rounded=0;orthogonalLoop=1;jettySize=auto;html=1;exitX=0.5;exitY=1;exitDx=0;exitDy=0;entryX=0.5;entryY=0;entryDx=0;entryDy=0;" edge="1" parent="1" source="tsOh3CpH0ZqvVloPl-19-9" target="tsOh3CpH0ZqvVloPl-19-12">
          <mxGeometry relative="1" as="geometry" />
        </mxCell>
        <mxCell id="tsOh3CpH0ZqvVloPl-19-9" value="node-&amp;gt;next=list-&amp;gt;head" style="rounded=0;whiteSpace=wrap;html=1;" vertex="1" parent="1">
          <mxGeometry x="170" y="350" width="150" height="60" as="geometry" />
        </mxCell>
        <mxCell id="tsOh3CpH0ZqvVloPl-19-16" value="" style="edgeStyle=orthogonalEdgeStyle;rounded=0;orthogonalLoop=1;jettySize=auto;html=1;" edge="1" parent="1" source="tsOh3CpH0ZqvVloPl-19-12" target="tsOh3CpH0ZqvVloPl-19-15">
          <mxGeometry relative="1" as="geometry" />
        </mxCell>
        <mxCell id="tsOh3CpH0ZqvVloPl-19-12" value="list-&amp;gt;head=node" style="rounded=0;whiteSpace=wrap;html=1;" vertex="1" parent="1">
          <mxGeometry x="340" y="470" width="120" height="60" as="geometry" />
        </mxCell>
        <mxCell id="tsOh3CpH0ZqvVloPl-19-15" value="return" style="ellipse;whiteSpace=wrap;html=1;" vertex="1" parent="1">
          <mxGeometry x="357.5" y="560" width="85" height="40" as="geometry" />
        </mxCell>
        <mxCell id="1bPycQRmTtvCsKl50Y_s-1" value="1" style="text;html=1;strokeColor=none;fillColor=none;align=center;verticalAlign=middle;whiteSpace=wrap;rounded=0;" vertex="1" parent="1">
          <mxGeometry x="220" y="-30" width="60" height="30" as="geometry" />
        </mxCell>
        <mxCell id="1bPycQRmTtvCsKl50Y_s-3" value="2" style="text;html=1;strokeColor=none;fillColor=none;align=center;verticalAlign=middle;whiteSpace=wrap;rounded=0;" vertex="1" parent="1">
          <mxGeometry x="370" y="-30" width="60" height="30" as="geometry" />
        </mxCell>
        <mxCell id="1bPycQRmTtvCsKl50Y_s-4" value="3" style="text;html=1;strokeColor=none;fillColor=none;align=center;verticalAlign=middle;whiteSpace=wrap;rounded=0;" vertex="1" parent="1">
          <mxGeometry x="490" y="-30" width="60" height="30" as="geometry" />
        </mxCell>
        <mxCell id="1bPycQRmTtvCsKl50Y_s-5" value="A" style="text;html=1;strokeColor=none;fillColor=none;align=center;verticalAlign=middle;whiteSpace=wrap;rounded=0;" vertex="1" parent="1">
          <mxGeometry x="110" y="45" width="60" height="30" as="geometry" />
        </mxCell>
        <mxCell id="1bPycQRmTtvCsKl50Y_s-6" value="B" style="text;html=1;strokeColor=none;fillColor=none;align=center;verticalAlign=middle;whiteSpace=wrap;rounded=0;" vertex="1" parent="1">
          <mxGeometry x="110" y="135" width="60" height="30" as="geometry" />
        </mxCell>
        <mxCell id="1bPycQRmTtvCsKl50Y_s-7" value="C" style="text;html=1;strokeColor=none;fillColor=none;align=center;verticalAlign=middle;whiteSpace=wrap;rounded=0;" vertex="1" parent="1">
          <mxGeometry x="110" y="215" width="60" height="30" as="geometry" />
        </mxCell>
        <mxCell id="1bPycQRmTtvCsKl50Y_s-8" value="D" style="text;html=1;strokeColor=none;fillColor=none;align=center;verticalAlign=middle;whiteSpace=wrap;rounded=0;" vertex="1" parent="1">
          <mxGeometry x="120" y="300" width="60" height="30" as="geometry" />
        </mxCell>
        <mxCell id="1bPycQRmTtvCsKl50Y_s-9" value="E" style="text;html=1;strokeColor=none;fillColor=none;align=center;verticalAlign=middle;whiteSpace=wrap;rounded=0;" vertex="1" parent="1">
          <mxGeometry x="120" y="365" width="60" height="30" as="geometry" />
        </mxCell>
        <mxCell id="1bPycQRmTtvCsKl50Y_s-10" value="F" style="text;html=1;strokeColor=none;fillColor=none;align=center;verticalAlign=middle;whiteSpace=wrap;rounded=0;" vertex="1" parent="1">
          <mxGeometry x="130" y="480" width="60" height="30" as="geometry" />
        </mxCell>
        <mxCell id="1bPycQRmTtvCsKl50Y_s-11" value="G" style="text;html=1;strokeColor=none;fillColor=none;align=center;verticalAlign=middle;whiteSpace=wrap;rounded=0;" vertex="1" parent="1">
          <mxGeometry x="130" y="560" width="60" height="30" as="geometry" />
        </mxCell>
      </root>
    </mxGraphModel>
  </diagram>
  <diagram id="M-zKSaMKYyQWwNMtRcbp" name="insert">
    <mxGraphModel dx="664" dy="785" grid="1" gridSize="10" guides="1" tooltips="1" connect="1" arrows="1" fold="1" page="1" pageScale="1" pageWidth="850" pageHeight="1100" math="0" shadow="0">
      <root>
        <mxCell id="0" />
        <mxCell id="1" parent="0" />
        <mxCell id="h3ICmOeS8-fYUqIgnXOp-3" value="" style="edgeStyle=orthogonalEdgeStyle;rounded=0;orthogonalLoop=1;jettySize=auto;html=1;" edge="1" parent="1" source="h3ICmOeS8-fYUqIgnXOp-1" target="h3ICmOeS8-fYUqIgnXOp-2">
          <mxGeometry relative="1" as="geometry" />
        </mxCell>
        <mxCell id="h3ICmOeS8-fYUqIgnXOp-1" value="insert(list,prev,data)" style="ellipse;whiteSpace=wrap;html=1;" vertex="1" parent="1">
          <mxGeometry x="330" y="40" width="130" height="60" as="geometry" />
        </mxCell>
        <mxCell id="h3ICmOeS8-fYUqIgnXOp-5" style="edgeStyle=orthogonalEdgeStyle;rounded=0;orthogonalLoop=1;jettySize=auto;html=1;exitX=1;exitY=0.5;exitDx=0;exitDy=0;entryX=0.5;entryY=0;entryDx=0;entryDy=0;" edge="1" parent="1" source="h3ICmOeS8-fYUqIgnXOp-2" target="h3ICmOeS8-fYUqIgnXOp-4">
          <mxGeometry relative="1" as="geometry" />
        </mxCell>
        <mxCell id="h3ICmOeS8-fYUqIgnXOp-7" style="edgeStyle=orthogonalEdgeStyle;rounded=0;orthogonalLoop=1;jettySize=auto;html=1;exitX=0;exitY=0.5;exitDx=0;exitDy=0;entryX=0.5;entryY=0;entryDx=0;entryDy=0;" edge="1" parent="1" source="h3ICmOeS8-fYUqIgnXOp-2" target="h3ICmOeS8-fYUqIgnXOp-6">
          <mxGeometry relative="1" as="geometry" />
        </mxCell>
        <mxCell id="h3ICmOeS8-fYUqIgnXOp-2" value="prev==list-&amp;gt;head" style="rhombus;whiteSpace=wrap;html=1;" vertex="1" parent="1">
          <mxGeometry x="337.5" y="130" width="115" height="70" as="geometry" />
        </mxCell>
        <mxCell id="h3ICmOeS8-fYUqIgnXOp-20" style="edgeStyle=orthogonalEdgeStyle;rounded=0;orthogonalLoop=1;jettySize=auto;html=1;exitX=0.5;exitY=1;exitDx=0;exitDy=0;entryX=0.5;entryY=0;entryDx=0;entryDy=0;" edge="1" parent="1" source="h3ICmOeS8-fYUqIgnXOp-4" target="h3ICmOeS8-fYUqIgnXOp-17">
          <mxGeometry relative="1" as="geometry">
            <Array as="points">
              <mxPoint x="540" y="680" />
              <mxPoint x="395" y="680" />
            </Array>
          </mxGeometry>
        </mxCell>
        <mxCell id="h3ICmOeS8-fYUqIgnXOp-4" value="add_head(list,data)" style="shape=process;whiteSpace=wrap;html=1;backgroundOutline=1;" vertex="1" parent="1">
          <mxGeometry x="470" y="210" width="140" height="60" as="geometry" />
        </mxCell>
        <mxCell id="h3ICmOeS8-fYUqIgnXOp-9" value="" style="edgeStyle=orthogonalEdgeStyle;rounded=0;orthogonalLoop=1;jettySize=auto;html=1;" edge="1" parent="1" source="h3ICmOeS8-fYUqIgnXOp-6" target="h3ICmOeS8-fYUqIgnXOp-8">
          <mxGeometry relative="1" as="geometry" />
        </mxCell>
        <mxCell id="h3ICmOeS8-fYUqIgnXOp-6" value="tmp=list-&amp;gt;head" style="rounded=0;whiteSpace=wrap;html=1;" vertex="1" parent="1">
          <mxGeometry x="200" y="210" width="120" height="60" as="geometry" />
        </mxCell>
        <mxCell id="h3ICmOeS8-fYUqIgnXOp-11" style="edgeStyle=orthogonalEdgeStyle;rounded=0;orthogonalLoop=1;jettySize=auto;html=1;exitX=1;exitY=0.5;exitDx=0;exitDy=0;entryX=0.5;entryY=0;entryDx=0;entryDy=0;" edge="1" parent="1" source="h3ICmOeS8-fYUqIgnXOp-8" target="h3ICmOeS8-fYUqIgnXOp-10">
          <mxGeometry relative="1" as="geometry" />
        </mxCell>
        <mxCell id="h3ICmOeS8-fYUqIgnXOp-13" style="edgeStyle=orthogonalEdgeStyle;rounded=0;orthogonalLoop=1;jettySize=auto;html=1;exitX=0;exitY=0.5;exitDx=0;exitDy=0;" edge="1" parent="1" source="h3ICmOeS8-fYUqIgnXOp-8" target="h3ICmOeS8-fYUqIgnXOp-12">
          <mxGeometry relative="1" as="geometry" />
        </mxCell>
        <mxCell id="h3ICmOeS8-fYUqIgnXOp-8" value="tmp-&amp;gt;next!=prev" style="rhombus;whiteSpace=wrap;html=1;" vertex="1" parent="1">
          <mxGeometry x="185" y="310" width="150" height="80" as="geometry" />
        </mxCell>
        <mxCell id="h3ICmOeS8-fYUqIgnXOp-14" style="edgeStyle=orthogonalEdgeStyle;rounded=0;orthogonalLoop=1;jettySize=auto;html=1;exitX=0.5;exitY=1;exitDx=0;exitDy=0;entryX=0.5;entryY=0;entryDx=0;entryDy=0;" edge="1" parent="1" source="h3ICmOeS8-fYUqIgnXOp-10" target="h3ICmOeS8-fYUqIgnXOp-12">
          <mxGeometry relative="1" as="geometry">
            <mxPoint x="270" y="520" as="targetPoint" />
          </mxGeometry>
        </mxCell>
        <mxCell id="h3ICmOeS8-fYUqIgnXOp-10" value="tmp=tmp-&amp;gt;next" style="rounded=0;whiteSpace=wrap;html=1;" vertex="1" parent="1">
          <mxGeometry x="335" y="420" width="120" height="60" as="geometry" />
        </mxCell>
        <mxCell id="h3ICmOeS8-fYUqIgnXOp-16" value="" style="edgeStyle=orthogonalEdgeStyle;rounded=0;orthogonalLoop=1;jettySize=auto;html=1;" edge="1" parent="1" source="h3ICmOeS8-fYUqIgnXOp-12" target="h3ICmOeS8-fYUqIgnXOp-15">
          <mxGeometry relative="1" as="geometry" />
        </mxCell>
        <mxCell id="h3ICmOeS8-fYUqIgnXOp-12" value="node=malloc()" style="shape=process;whiteSpace=wrap;html=1;backgroundOutline=1;" vertex="1" parent="1">
          <mxGeometry x="200" y="520" width="120" height="60" as="geometry" />
        </mxCell>
        <mxCell id="h3ICmOeS8-fYUqIgnXOp-18" style="edgeStyle=orthogonalEdgeStyle;rounded=0;orthogonalLoop=1;jettySize=auto;html=1;exitX=0.5;exitY=1;exitDx=0;exitDy=0;entryX=0.5;entryY=0;entryDx=0;entryDy=0;" edge="1" parent="1" source="h3ICmOeS8-fYUqIgnXOp-15" target="h3ICmOeS8-fYUqIgnXOp-17">
          <mxGeometry relative="1" as="geometry" />
        </mxCell>
        <mxCell id="h3ICmOeS8-fYUqIgnXOp-15" value="node-&amp;gt;data=data&lt;br&gt;tmp-&amp;gt;next=node&lt;br&gt;node-&amp;gt;next=prev" style="rounded=0;whiteSpace=wrap;html=1;" vertex="1" parent="1">
          <mxGeometry x="200" y="600" width="120" height="60" as="geometry" />
        </mxCell>
        <mxCell id="h3ICmOeS8-fYUqIgnXOp-17" value="return" style="ellipse;whiteSpace=wrap;html=1;" vertex="1" parent="1">
          <mxGeometry x="352.5" y="710" width="85" height="50" as="geometry" />
        </mxCell>
        <mxCell id="RNNXhjelscx1jWsr1prw-1" value="1" style="text;html=1;strokeColor=none;fillColor=none;align=center;verticalAlign=middle;whiteSpace=wrap;rounded=0;" vertex="1" parent="1">
          <mxGeometry x="230" y="11" width="60" height="30" as="geometry" />
        </mxCell>
        <mxCell id="RNNXhjelscx1jWsr1prw-2" value="2" style="text;html=1;strokeColor=none;fillColor=none;align=center;verticalAlign=middle;whiteSpace=wrap;rounded=0;" vertex="1" parent="1">
          <mxGeometry x="365" y="10" width="60" height="30" as="geometry" />
        </mxCell>
        <mxCell id="RNNXhjelscx1jWsr1prw-3" value="3" style="text;html=1;strokeColor=none;fillColor=none;align=center;verticalAlign=middle;whiteSpace=wrap;rounded=0;" vertex="1" parent="1">
          <mxGeometry x="510" y="10" width="60" height="30" as="geometry" />
        </mxCell>
        <mxCell id="RNNXhjelscx1jWsr1prw-4" value="A" style="text;html=1;strokeColor=none;fillColor=none;align=center;verticalAlign=middle;whiteSpace=wrap;rounded=0;" vertex="1" parent="1">
          <mxGeometry x="100" y="55" width="60" height="30" as="geometry" />
        </mxCell>
        <mxCell id="RNNXhjelscx1jWsr1prw-5" value="B" style="text;html=1;strokeColor=none;fillColor=none;align=center;verticalAlign=middle;whiteSpace=wrap;rounded=0;" vertex="1" parent="1">
          <mxGeometry x="100" y="150" width="60" height="30" as="geometry" />
        </mxCell>
        <mxCell id="RNNXhjelscx1jWsr1prw-6" value="C" style="text;html=1;strokeColor=none;fillColor=none;align=center;verticalAlign=middle;whiteSpace=wrap;rounded=0;" vertex="1" parent="1">
          <mxGeometry x="100" y="220" width="60" height="30" as="geometry" />
        </mxCell>
        <mxCell id="RNNXhjelscx1jWsr1prw-8" value="E" style="text;html=1;strokeColor=none;fillColor=none;align=center;verticalAlign=middle;whiteSpace=wrap;rounded=0;" vertex="1" parent="1">
          <mxGeometry x="100" y="430" width="60" height="30" as="geometry" />
        </mxCell>
        <mxCell id="RNNXhjelscx1jWsr1prw-9" value="F" style="text;html=1;strokeColor=none;fillColor=none;align=center;verticalAlign=middle;whiteSpace=wrap;rounded=0;" vertex="1" parent="1">
          <mxGeometry x="100" y="540" width="60" height="30" as="geometry" />
        </mxCell>
        <mxCell id="RNNXhjelscx1jWsr1prw-10" value="G" style="text;html=1;strokeColor=none;fillColor=none;align=center;verticalAlign=middle;whiteSpace=wrap;rounded=0;" vertex="1" parent="1">
          <mxGeometry x="100" y="620" width="60" height="30" as="geometry" />
        </mxCell>
        <mxCell id="RNNXhjelscx1jWsr1prw-11" value="H" style="text;html=1;strokeColor=none;fillColor=none;align=center;verticalAlign=middle;whiteSpace=wrap;rounded=0;" vertex="1" parent="1">
          <mxGeometry x="110" y="720" width="60" height="30" as="geometry" />
        </mxCell>
        <mxCell id="RNNXhjelscx1jWsr1prw-12" value="D" style="text;html=1;strokeColor=none;fillColor=none;align=center;verticalAlign=middle;whiteSpace=wrap;rounded=0;" vertex="1" parent="1">
          <mxGeometry x="100" y="335" width="60" height="30" as="geometry" />
        </mxCell>
      </root>
    </mxGraphModel>
  </diagram>
  <diagram id="9pj6BDNA5w-3dVJz6QaT" name="get_node">
    <mxGraphModel dx="1680" dy="982" grid="1" gridSize="10" guides="1" tooltips="1" connect="1" arrows="1" fold="1" page="1" pageScale="1" pageWidth="850" pageHeight="1100" math="0" shadow="0">
      <root>
        <mxCell id="0" />
        <mxCell id="1" parent="0" />
        <mxCell id="_T5U7uKTYg_Jv-F4ekAC-3" value="" style="edgeStyle=orthogonalEdgeStyle;rounded=0;orthogonalLoop=1;jettySize=auto;html=1;" edge="1" parent="1" source="_T5U7uKTYg_Jv-F4ekAC-1" target="_T5U7uKTYg_Jv-F4ekAC-2">
          <mxGeometry relative="1" as="geometry" />
        </mxCell>
        <mxCell id="_T5U7uKTYg_Jv-F4ekAC-1" value="get_node(list,data)" style="ellipse;whiteSpace=wrap;html=1;" vertex="1" parent="1">
          <mxGeometry x="150" y="80" width="130" height="60" as="geometry" />
        </mxCell>
        <mxCell id="_T5U7uKTYg_Jv-F4ekAC-5" value="" style="edgeStyle=orthogonalEdgeStyle;rounded=0;orthogonalLoop=1;jettySize=auto;html=1;" edge="1" parent="1" source="_T5U7uKTYg_Jv-F4ekAC-2" target="_T5U7uKTYg_Jv-F4ekAC-4">
          <mxGeometry relative="1" as="geometry" />
        </mxCell>
        <mxCell id="_T5U7uKTYg_Jv-F4ekAC-2" value="node=list-&amp;gt;head" style="rounded=0;whiteSpace=wrap;html=1;" vertex="1" parent="1">
          <mxGeometry x="155" y="160" width="120" height="60" as="geometry" />
        </mxCell>
        <mxCell id="_T5U7uKTYg_Jv-F4ekAC-7" style="edgeStyle=orthogonalEdgeStyle;rounded=0;orthogonalLoop=1;jettySize=auto;html=1;exitX=1;exitY=0.5;exitDx=0;exitDy=0;entryX=0.5;entryY=0;entryDx=0;entryDy=0;" edge="1" parent="1" source="_T5U7uKTYg_Jv-F4ekAC-4" target="_T5U7uKTYg_Jv-F4ekAC-6">
          <mxGeometry relative="1" as="geometry" />
        </mxCell>
        <mxCell id="_T5U7uKTYg_Jv-F4ekAC-14" style="edgeStyle=orthogonalEdgeStyle;rounded=0;orthogonalLoop=1;jettySize=auto;html=1;exitX=0;exitY=0.5;exitDx=0;exitDy=0;" edge="1" parent="1" source="_T5U7uKTYg_Jv-F4ekAC-4" target="_T5U7uKTYg_Jv-F4ekAC-13">
          <mxGeometry relative="1" as="geometry" />
        </mxCell>
        <mxCell id="_T5U7uKTYg_Jv-F4ekAC-4" value="node!=NULL" style="rhombus;whiteSpace=wrap;html=1;" vertex="1" parent="1">
          <mxGeometry x="175" y="260" width="80" height="80" as="geometry" />
        </mxCell>
        <mxCell id="_T5U7uKTYg_Jv-F4ekAC-9" style="edgeStyle=orthogonalEdgeStyle;rounded=0;orthogonalLoop=1;jettySize=auto;html=1;exitX=1;exitY=0.5;exitDx=0;exitDy=0;entryX=0.5;entryY=0;entryDx=0;entryDy=0;" edge="1" parent="1" source="_T5U7uKTYg_Jv-F4ekAC-6" target="_T5U7uKTYg_Jv-F4ekAC-8">
          <mxGeometry relative="1" as="geometry" />
        </mxCell>
        <mxCell id="_T5U7uKTYg_Jv-F4ekAC-11" style="edgeStyle=orthogonalEdgeStyle;rounded=0;orthogonalLoop=1;jettySize=auto;html=1;exitX=0;exitY=0.5;exitDx=0;exitDy=0;entryX=0.5;entryY=0;entryDx=0;entryDy=0;" edge="1" parent="1" source="_T5U7uKTYg_Jv-F4ekAC-6" target="_T5U7uKTYg_Jv-F4ekAC-10">
          <mxGeometry relative="1" as="geometry" />
        </mxCell>
        <mxCell id="_T5U7uKTYg_Jv-F4ekAC-6" value="strcmp(node-&amp;gt;data),data)==0" style="rhombus;whiteSpace=wrap;html=1;" vertex="1" parent="1">
          <mxGeometry x="92.5" y="390" width="245" height="80" as="geometry" />
        </mxCell>
        <mxCell id="_T5U7uKTYg_Jv-F4ekAC-8" value="return node" style="ellipse;whiteSpace=wrap;html=1;" vertex="1" parent="1">
          <mxGeometry x="340" y="500" width="110" height="50" as="geometry" />
        </mxCell>
        <mxCell id="_T5U7uKTYg_Jv-F4ekAC-12" style="edgeStyle=orthogonalEdgeStyle;rounded=0;orthogonalLoop=1;jettySize=auto;html=1;exitX=0.5;exitY=1;exitDx=0;exitDy=0;entryX=0.5;entryY=0;entryDx=0;entryDy=0;" edge="1" parent="1" source="_T5U7uKTYg_Jv-F4ekAC-10" target="_T5U7uKTYg_Jv-F4ekAC-4">
          <mxGeometry relative="1" as="geometry">
            <Array as="points">
              <mxPoint x="60" y="580" />
              <mxPoint x="460" y="580" />
              <mxPoint x="460" y="240" />
              <mxPoint x="215" y="240" />
            </Array>
          </mxGeometry>
        </mxCell>
        <mxCell id="_T5U7uKTYg_Jv-F4ekAC-10" value="node=node-&amp;gt;next" style="rounded=0;whiteSpace=wrap;html=1;" vertex="1" parent="1">
          <mxGeometry y="500" width="120" height="60" as="geometry" />
        </mxCell>
        <mxCell id="_T5U7uKTYg_Jv-F4ekAC-13" value="return NULL" style="ellipse;whiteSpace=wrap;html=1;" vertex="1" parent="1">
          <mxGeometry x="-90" y="400" width="110" height="60" as="geometry" />
        </mxCell>
        <mxCell id="WbA1RGAHwuQMFmTfmh_V-1" value="1" style="text;html=1;strokeColor=none;fillColor=none;align=center;verticalAlign=middle;whiteSpace=wrap;rounded=0;" vertex="1" parent="1">
          <mxGeometry x="-65" y="50" width="60" height="30" as="geometry" />
        </mxCell>
        <mxCell id="WbA1RGAHwuQMFmTfmh_V-2" value="2" style="text;html=1;strokeColor=none;fillColor=none;align=center;verticalAlign=middle;whiteSpace=wrap;rounded=0;" vertex="1" parent="1">
          <mxGeometry x="185" y="40" width="60" height="30" as="geometry" />
        </mxCell>
        <mxCell id="WbA1RGAHwuQMFmTfmh_V-3" value="3" style="text;html=1;strokeColor=none;fillColor=none;align=center;verticalAlign=middle;whiteSpace=wrap;rounded=0;" vertex="1" parent="1">
          <mxGeometry x="365" y="50" width="60" height="30" as="geometry" />
        </mxCell>
        <mxCell id="WbA1RGAHwuQMFmTfmh_V-5" value="A" style="text;html=1;strokeColor=none;fillColor=none;align=center;verticalAlign=middle;whiteSpace=wrap;rounded=0;" vertex="1" parent="1">
          <mxGeometry x="-150" y="95" width="60" height="30" as="geometry" />
        </mxCell>
        <mxCell id="WbA1RGAHwuQMFmTfmh_V-6" value="B" style="text;html=1;strokeColor=none;fillColor=none;align=center;verticalAlign=middle;whiteSpace=wrap;rounded=0;" vertex="1" parent="1">
          <mxGeometry x="-150" y="175" width="60" height="30" as="geometry" />
        </mxCell>
        <mxCell id="WbA1RGAHwuQMFmTfmh_V-7" value="C" style="text;html=1;strokeColor=none;fillColor=none;align=center;verticalAlign=middle;whiteSpace=wrap;rounded=0;" vertex="1" parent="1">
          <mxGeometry x="-150" y="285" width="60" height="30" as="geometry" />
        </mxCell>
        <mxCell id="WbA1RGAHwuQMFmTfmh_V-8" value="D" style="text;html=1;strokeColor=none;fillColor=none;align=center;verticalAlign=middle;whiteSpace=wrap;rounded=0;" vertex="1" parent="1">
          <mxGeometry x="-150" y="415" width="60" height="30" as="geometry" />
        </mxCell>
        <mxCell id="WbA1RGAHwuQMFmTfmh_V-9" value="E" style="text;html=1;strokeColor=none;fillColor=none;align=center;verticalAlign=middle;whiteSpace=wrap;rounded=0;" vertex="1" parent="1">
          <mxGeometry x="-150" y="510" width="60" height="30" as="geometry" />
        </mxCell>
      </root>
    </mxGraphModel>
  </diagram>
  <diagram id="__fie7J_nlg3oGxsgy96" name="delete_node">
    <mxGraphModel dx="1680" dy="982" grid="1" gridSize="10" guides="1" tooltips="1" connect="1" arrows="1" fold="1" page="1" pageScale="1" pageWidth="850" pageHeight="1100" math="0" shadow="0">
      <root>
        <mxCell id="0" />
        <mxCell id="1" parent="0" />
        <mxCell id="VYD9003m_kMN-tOXROGQ-3" value="" style="edgeStyle=orthogonalEdgeStyle;rounded=0;orthogonalLoop=1;jettySize=auto;html=1;" edge="1" parent="1" source="VYD9003m_kMN-tOXROGQ-1" target="VYD9003m_kMN-tOXROGQ-2">
          <mxGeometry relative="1" as="geometry" />
        </mxCell>
        <mxCell id="VYD9003m_kMN-tOXROGQ-1" value="delete_node(list,node)" style="ellipse;whiteSpace=wrap;html=1;" vertex="1" parent="1">
          <mxGeometry x="170" y="80" width="140" height="50" as="geometry" />
        </mxCell>
        <mxCell id="VYD9003m_kMN-tOXROGQ-5" style="edgeStyle=orthogonalEdgeStyle;rounded=0;orthogonalLoop=1;jettySize=auto;html=1;exitX=1;exitY=0.5;exitDx=0;exitDy=0;entryX=0.5;entryY=0;entryDx=0;entryDy=0;" edge="1" parent="1" source="VYD9003m_kMN-tOXROGQ-2" target="VYD9003m_kMN-tOXROGQ-4">
          <mxGeometry relative="1" as="geometry" />
        </mxCell>
        <mxCell id="VYD9003m_kMN-tOXROGQ-11" style="edgeStyle=orthogonalEdgeStyle;rounded=0;orthogonalLoop=1;jettySize=auto;html=1;exitX=0;exitY=0.5;exitDx=0;exitDy=0;entryX=0.5;entryY=0;entryDx=0;entryDy=0;" edge="1" parent="1" source="VYD9003m_kMN-tOXROGQ-2" target="VYD9003m_kMN-tOXROGQ-10">
          <mxGeometry relative="1" as="geometry" />
        </mxCell>
        <mxCell id="VYD9003m_kMN-tOXROGQ-2" value="node==list-&amp;gt;head" style="rhombus;whiteSpace=wrap;html=1;" vertex="1" parent="1">
          <mxGeometry x="180" y="160" width="120" height="80" as="geometry" />
        </mxCell>
        <mxCell id="VYD9003m_kMN-tOXROGQ-7" style="edgeStyle=orthogonalEdgeStyle;rounded=0;orthogonalLoop=1;jettySize=auto;html=1;exitX=0;exitY=0.5;exitDx=0;exitDy=0;entryX=0.5;entryY=0;entryDx=0;entryDy=0;" edge="1" parent="1" source="VYD9003m_kMN-tOXROGQ-4" target="VYD9003m_kMN-tOXROGQ-6">
          <mxGeometry relative="1" as="geometry" />
        </mxCell>
        <mxCell id="VYD9003m_kMN-tOXROGQ-9" style="edgeStyle=orthogonalEdgeStyle;rounded=0;orthogonalLoop=1;jettySize=auto;html=1;exitX=1;exitY=0.5;exitDx=0;exitDy=0;entryX=0.5;entryY=0;entryDx=0;entryDy=0;" edge="1" parent="1" source="VYD9003m_kMN-tOXROGQ-4" target="VYD9003m_kMN-tOXROGQ-8">
          <mxGeometry relative="1" as="geometry" />
        </mxCell>
        <mxCell id="VYD9003m_kMN-tOXROGQ-4" value="list-&amp;gt;head-&amp;gt;next==NULL" style="rhombus;whiteSpace=wrap;html=1;" vertex="1" parent="1">
          <mxGeometry x="400" y="240" width="170" height="80" as="geometry" />
        </mxCell>
        <mxCell id="VYD9003m_kMN-tOXROGQ-25" style="edgeStyle=orthogonalEdgeStyle;rounded=0;orthogonalLoop=1;jettySize=auto;html=1;exitX=0.5;exitY=1;exitDx=0;exitDy=0;entryX=0.5;entryY=0;entryDx=0;entryDy=0;" edge="1" parent="1" source="VYD9003m_kMN-tOXROGQ-6" target="VYD9003m_kMN-tOXROGQ-22">
          <mxGeometry relative="1" as="geometry" />
        </mxCell>
        <mxCell id="VYD9003m_kMN-tOXROGQ-6" value="list-&amp;gt;head=NULL" style="rounded=0;whiteSpace=wrap;html=1;" vertex="1" parent="1">
          <mxGeometry x="280" y="350" width="120" height="60" as="geometry" />
        </mxCell>
        <mxCell id="VYD9003m_kMN-tOXROGQ-26" style="edgeStyle=orthogonalEdgeStyle;rounded=0;orthogonalLoop=1;jettySize=auto;html=1;exitX=0.5;exitY=1;exitDx=0;exitDy=0;" edge="1" parent="1" source="VYD9003m_kMN-tOXROGQ-8" target="VYD9003m_kMN-tOXROGQ-22">
          <mxGeometry relative="1" as="geometry" />
        </mxCell>
        <mxCell id="VYD9003m_kMN-tOXROGQ-8" value="list-&amp;gt;head=list-&amp;gt;head-&amp;gt;next" style="rounded=0;whiteSpace=wrap;html=1;" vertex="1" parent="1">
          <mxGeometry x="570" y="350" width="160" height="60" as="geometry" />
        </mxCell>
        <mxCell id="VYD9003m_kMN-tOXROGQ-13" value="" style="edgeStyle=orthogonalEdgeStyle;rounded=0;orthogonalLoop=1;jettySize=auto;html=1;" edge="1" parent="1" source="VYD9003m_kMN-tOXROGQ-10" target="VYD9003m_kMN-tOXROGQ-12">
          <mxGeometry relative="1" as="geometry" />
        </mxCell>
        <mxCell id="VYD9003m_kMN-tOXROGQ-10" value="tmp=list-&amp;gt;head" style="rounded=0;whiteSpace=wrap;html=1;" vertex="1" parent="1">
          <mxGeometry x="20" y="250" width="120" height="60" as="geometry" />
        </mxCell>
        <mxCell id="VYD9003m_kMN-tOXROGQ-15" style="edgeStyle=orthogonalEdgeStyle;rounded=0;orthogonalLoop=1;jettySize=auto;html=1;exitX=1;exitY=0.5;exitDx=0;exitDy=0;entryX=0.5;entryY=0;entryDx=0;entryDy=0;" edge="1" parent="1" source="VYD9003m_kMN-tOXROGQ-12" target="VYD9003m_kMN-tOXROGQ-14">
          <mxGeometry relative="1" as="geometry" />
        </mxCell>
        <mxCell id="VYD9003m_kMN-tOXROGQ-18" style="edgeStyle=orthogonalEdgeStyle;rounded=0;orthogonalLoop=1;jettySize=auto;html=1;exitX=0;exitY=0.5;exitDx=0;exitDy=0;entryX=0.5;entryY=0;entryDx=0;entryDy=0;" edge="1" parent="1" source="VYD9003m_kMN-tOXROGQ-12" target="VYD9003m_kMN-tOXROGQ-16">
          <mxGeometry relative="1" as="geometry" />
        </mxCell>
        <mxCell id="VYD9003m_kMN-tOXROGQ-12" value="tmp!=NULL&amp;amp;&amp;amp;tmp-&amp;gt;next!=node" style="rhombus;whiteSpace=wrap;html=1;" vertex="1" parent="1">
          <mxGeometry x="-30" y="350" width="220" height="80" as="geometry" />
        </mxCell>
        <mxCell id="VYD9003m_kMN-tOXROGQ-19" style="edgeStyle=orthogonalEdgeStyle;rounded=0;orthogonalLoop=1;jettySize=auto;html=1;exitX=0.5;exitY=1;exitDx=0;exitDy=0;entryX=0.5;entryY=0;entryDx=0;entryDy=0;" edge="1" parent="1" source="VYD9003m_kMN-tOXROGQ-14" target="VYD9003m_kMN-tOXROGQ-12">
          <mxGeometry relative="1" as="geometry">
            <Array as="points">
              <mxPoint x="80" y="550" />
              <mxPoint x="230" y="550" />
              <mxPoint x="230" y="330" />
              <mxPoint x="80" y="330" />
            </Array>
          </mxGeometry>
        </mxCell>
        <mxCell id="VYD9003m_kMN-tOXROGQ-14" value="tmp=tmp-&amp;gt;next" style="rounded=0;whiteSpace=wrap;html=1;" vertex="1" parent="1">
          <mxGeometry x="20" y="470" width="120" height="60" as="geometry" />
        </mxCell>
        <mxCell id="VYD9003m_kMN-tOXROGQ-21" style="edgeStyle=orthogonalEdgeStyle;rounded=0;orthogonalLoop=1;jettySize=auto;html=1;exitX=1;exitY=0.5;exitDx=0;exitDy=0;entryX=0.5;entryY=0;entryDx=0;entryDy=0;" edge="1" parent="1" source="VYD9003m_kMN-tOXROGQ-16" target="VYD9003m_kMN-tOXROGQ-20">
          <mxGeometry relative="1" as="geometry" />
        </mxCell>
        <mxCell id="VYD9003m_kMN-tOXROGQ-23" style="edgeStyle=orthogonalEdgeStyle;rounded=0;orthogonalLoop=1;jettySize=auto;html=1;exitX=0;exitY=0.5;exitDx=0;exitDy=0;entryX=0.5;entryY=0;entryDx=0;entryDy=0;" edge="1" parent="1" source="VYD9003m_kMN-tOXROGQ-16" target="VYD9003m_kMN-tOXROGQ-22">
          <mxGeometry relative="1" as="geometry">
            <Array as="points">
              <mxPoint x="-190" y="500" />
              <mxPoint x="-190" y="690" />
              <mxPoint x="245" y="690" />
            </Array>
          </mxGeometry>
        </mxCell>
        <mxCell id="VYD9003m_kMN-tOXROGQ-16" value="tmp!=NULL" style="rhombus;whiteSpace=wrap;html=1;" vertex="1" parent="1">
          <mxGeometry x="-140" y="460" width="80" height="80" as="geometry" />
        </mxCell>
        <mxCell id="VYD9003m_kMN-tOXROGQ-20" value="tmp-&amp;gt;next=node-&amp;gt;next" style="rounded=0;whiteSpace=wrap;html=1;" vertex="1" parent="1">
          <mxGeometry x="-160" y="590" width="120" height="60" as="geometry" />
        </mxCell>
        <mxCell id="VYD9003m_kMN-tOXROGQ-22" value="return" style="ellipse;whiteSpace=wrap;html=1;" vertex="1" parent="1">
          <mxGeometry x="190" y="700" width="110" height="50" as="geometry" />
        </mxCell>
      </root>
    </mxGraphModel>
  </diagram>
  <diagram id="U1nLU-K5ZvyF-TrV_6ci" name="display_list">
    <mxGraphModel dx="498" dy="589" grid="1" gridSize="10" guides="1" tooltips="1" connect="1" arrows="1" fold="1" page="1" pageScale="1" pageWidth="850" pageHeight="1100" math="0" shadow="0">
      <root>
        <mxCell id="0" />
        <mxCell id="1" parent="0" />
        <mxCell id="fvXohN3xMH8c6ZxkGuw--4" value="" style="edgeStyle=orthogonalEdgeStyle;rounded=0;orthogonalLoop=1;jettySize=auto;html=1;" edge="1" parent="1" source="fvXohN3xMH8c6ZxkGuw--1" target="fvXohN3xMH8c6ZxkGuw--2">
          <mxGeometry relative="1" as="geometry" />
        </mxCell>
        <mxCell id="fvXohN3xMH8c6ZxkGuw--1" value="display_list(list)" style="ellipse;whiteSpace=wrap;html=1;" vertex="1" parent="1">
          <mxGeometry x="230" y="70" width="120" height="80" as="geometry" />
        </mxCell>
        <mxCell id="fvXohN3xMH8c6ZxkGuw--5" value="" style="edgeStyle=orthogonalEdgeStyle;rounded=0;orthogonalLoop=1;jettySize=auto;html=1;" edge="1" parent="1" source="fvXohN3xMH8c6ZxkGuw--2" target="fvXohN3xMH8c6ZxkGuw--3">
          <mxGeometry relative="1" as="geometry" />
        </mxCell>
        <mxCell id="fvXohN3xMH8c6ZxkGuw--2" value="current=list-&amp;gt;head" style="rounded=0;whiteSpace=wrap;html=1;" vertex="1" parent="1">
          <mxGeometry x="230" y="190" width="120" height="60" as="geometry" />
        </mxCell>
        <mxCell id="fvXohN3xMH8c6ZxkGuw--7" style="edgeStyle=orthogonalEdgeStyle;rounded=0;orthogonalLoop=1;jettySize=auto;html=1;exitX=1;exitY=0.5;exitDx=0;exitDy=0;" edge="1" parent="1" source="fvXohN3xMH8c6ZxkGuw--3" target="fvXohN3xMH8c6ZxkGuw--6">
          <mxGeometry relative="1" as="geometry" />
        </mxCell>
        <mxCell id="fvXohN3xMH8c6ZxkGuw--10" style="edgeStyle=orthogonalEdgeStyle;rounded=0;orthogonalLoop=1;jettySize=auto;html=1;exitX=0;exitY=0.5;exitDx=0;exitDy=0;entryX=0.5;entryY=0;entryDx=0;entryDy=0;" edge="1" parent="1" source="fvXohN3xMH8c6ZxkGuw--3" target="fvXohN3xMH8c6ZxkGuw--9">
          <mxGeometry relative="1" as="geometry" />
        </mxCell>
        <mxCell id="fvXohN3xMH8c6ZxkGuw--3" value="current!=NULL" style="rhombus;whiteSpace=wrap;html=1;" vertex="1" parent="1">
          <mxGeometry x="235" y="280" width="110" height="80" as="geometry" />
        </mxCell>
        <mxCell id="fvXohN3xMH8c6ZxkGuw--8" style="edgeStyle=orthogonalEdgeStyle;rounded=0;orthogonalLoop=1;jettySize=auto;html=1;exitX=0.5;exitY=1;exitDx=0;exitDy=0;entryX=0.5;entryY=0;entryDx=0;entryDy=0;" edge="1" parent="1" source="fvXohN3xMH8c6ZxkGuw--6" target="fvXohN3xMH8c6ZxkGuw--3">
          <mxGeometry relative="1" as="geometry">
            <Array as="points">
              <mxPoint x="290" y="490" />
              <mxPoint x="380" y="490" />
              <mxPoint x="380" y="260" />
              <mxPoint x="290" y="260" />
            </Array>
          </mxGeometry>
        </mxCell>
        <mxCell id="fvXohN3xMH8c6ZxkGuw--6" value="Вывод данных" style="shape=parallelogram;perimeter=parallelogramPerimeter;whiteSpace=wrap;html=1;fixedSize=1;" vertex="1" parent="1">
          <mxGeometry x="230" y="410" width="120" height="60" as="geometry" />
        </mxCell>
        <mxCell id="fvXohN3xMH8c6ZxkGuw--9" value="return" style="ellipse;whiteSpace=wrap;html=1;" vertex="1" parent="1">
          <mxGeometry x="90" y="410" width="110" height="60" as="geometry" />
        </mxCell>
      </root>
    </mxGraphModel>
  </diagram>
  <diagram id="Puf9jzMOqkzsH_W82fPn" name="sort">
    <mxGraphModel dx="3346" dy="1184" grid="1" gridSize="10" guides="1" tooltips="1" connect="1" arrows="1" fold="1" page="1" pageScale="1" pageWidth="850" pageHeight="1100" math="0" shadow="0">
      <root>
        <mxCell id="0" />
        <mxCell id="1" parent="0" />
        <mxCell id="2VzbFYF5EDdgyUX8YSB1-4" value="" style="edgeStyle=orthogonalEdgeStyle;rounded=0;orthogonalLoop=1;jettySize=auto;html=1;" edge="1" parent="1" source="2VzbFYF5EDdgyUX8YSB1-1" target="2VzbFYF5EDdgyUX8YSB1-3">
          <mxGeometry relative="1" as="geometry" />
        </mxCell>
        <mxCell id="2VzbFYF5EDdgyUX8YSB1-1" value="sort(list)" style="ellipse;whiteSpace=wrap;html=1;" vertex="1" parent="1">
          <mxGeometry x="180" y="30" width="120" height="80" as="geometry" />
        </mxCell>
        <mxCell id="2VzbFYF5EDdgyUX8YSB1-6" value="" style="edgeStyle=orthogonalEdgeStyle;rounded=0;orthogonalLoop=1;jettySize=auto;html=1;" edge="1" parent="1" source="2VzbFYF5EDdgyUX8YSB1-3" target="2VzbFYF5EDdgyUX8YSB1-5">
          <mxGeometry relative="1" as="geometry" />
        </mxCell>
        <mxCell id="2VzbFYF5EDdgyUX8YSB1-3" value="first=list-&amp;gt;head&lt;br&gt;second=NULL&lt;br&gt;min=first&lt;br&gt;tmp=NULL" style="rounded=0;whiteSpace=wrap;html=1;" vertex="1" parent="1">
          <mxGeometry x="180" y="150" width="120" height="60" as="geometry" />
        </mxCell>
        <mxCell id="2VzbFYF5EDdgyUX8YSB1-8" style="edgeStyle=orthogonalEdgeStyle;rounded=0;orthogonalLoop=1;jettySize=auto;html=1;exitX=1;exitY=0.5;exitDx=0;exitDy=0;entryX=0.5;entryY=0;entryDx=0;entryDy=0;" edge="1" parent="1" source="2VzbFYF5EDdgyUX8YSB1-5" target="2VzbFYF5EDdgyUX8YSB1-7">
          <mxGeometry relative="1" as="geometry" />
        </mxCell>
        <mxCell id="2VzbFYF5EDdgyUX8YSB1-23" style="edgeStyle=orthogonalEdgeStyle;rounded=0;orthogonalLoop=1;jettySize=auto;html=1;exitX=0;exitY=0.5;exitDx=0;exitDy=0;entryX=0.5;entryY=0;entryDx=0;entryDy=0;" edge="1" parent="1" source="2VzbFYF5EDdgyUX8YSB1-5" target="2VzbFYF5EDdgyUX8YSB1-22">
          <mxGeometry relative="1" as="geometry" />
        </mxCell>
        <mxCell id="2VzbFYF5EDdgyUX8YSB1-5" value="first-&amp;gt;next" style="rhombus;whiteSpace=wrap;html=1;" vertex="1" parent="1">
          <mxGeometry x="200" y="240" width="80" height="80" as="geometry" />
        </mxCell>
        <mxCell id="2VzbFYF5EDdgyUX8YSB1-10" value="" style="edgeStyle=orthogonalEdgeStyle;rounded=0;orthogonalLoop=1;jettySize=auto;html=1;" edge="1" parent="1" source="2VzbFYF5EDdgyUX8YSB1-7" target="2VzbFYF5EDdgyUX8YSB1-9">
          <mxGeometry relative="1" as="geometry" />
        </mxCell>
        <mxCell id="2VzbFYF5EDdgyUX8YSB1-7" value="min=first&lt;br&gt;second=first-&amp;gt;next" style="rounded=0;whiteSpace=wrap;html=1;" vertex="1" parent="1">
          <mxGeometry x="180" y="370" width="120" height="60" as="geometry" />
        </mxCell>
        <mxCell id="2VzbFYF5EDdgyUX8YSB1-12" style="edgeStyle=orthogonalEdgeStyle;rounded=0;orthogonalLoop=1;jettySize=auto;html=1;exitX=1;exitY=0.5;exitDx=0;exitDy=0;" edge="1" parent="1" source="2VzbFYF5EDdgyUX8YSB1-9" target="2VzbFYF5EDdgyUX8YSB1-11">
          <mxGeometry relative="1" as="geometry" />
        </mxCell>
        <mxCell id="2VzbFYF5EDdgyUX8YSB1-20" style="edgeStyle=orthogonalEdgeStyle;rounded=0;orthogonalLoop=1;jettySize=auto;html=1;exitX=0;exitY=0.5;exitDx=0;exitDy=0;entryX=0.5;entryY=0;entryDx=0;entryDy=0;" edge="1" parent="1" source="2VzbFYF5EDdgyUX8YSB1-9" target="2VzbFYF5EDdgyUX8YSB1-19">
          <mxGeometry relative="1" as="geometry" />
        </mxCell>
        <mxCell id="2VzbFYF5EDdgyUX8YSB1-9" value="second" style="rhombus;whiteSpace=wrap;html=1;" vertex="1" parent="1">
          <mxGeometry x="200" y="460" width="80" height="80" as="geometry" />
        </mxCell>
        <mxCell id="2VzbFYF5EDdgyUX8YSB1-17" style="edgeStyle=orthogonalEdgeStyle;rounded=0;orthogonalLoop=1;jettySize=auto;html=1;exitX=0;exitY=0.5;exitDx=0;exitDy=0;" edge="1" parent="1" source="2VzbFYF5EDdgyUX8YSB1-11">
          <mxGeometry relative="1" as="geometry">
            <mxPoint x="240" y="780" as="targetPoint" />
          </mxGeometry>
        </mxCell>
        <mxCell id="2VzbFYF5EDdgyUX8YSB1-11" value="strlen(min-&gt;data) &gt; strlen(second-&gt;data)" style="rhombus;whiteSpace=wrap;html=1;" vertex="1" parent="1">
          <mxGeometry x="110" y="570" width="260" height="100" as="geometry" />
        </mxCell>
        <mxCell id="2VzbFYF5EDdgyUX8YSB1-16" style="edgeStyle=orthogonalEdgeStyle;rounded=0;orthogonalLoop=1;jettySize=auto;html=1;exitX=0.5;exitY=1;exitDx=0;exitDy=0;" edge="1" parent="1" source="2VzbFYF5EDdgyUX8YSB1-13" target="2VzbFYF5EDdgyUX8YSB1-15">
          <mxGeometry relative="1" as="geometry" />
        </mxCell>
        <mxCell id="2VzbFYF5EDdgyUX8YSB1-13" value="min=second" style="rounded=0;whiteSpace=wrap;html=1;" vertex="1" parent="1">
          <mxGeometry x="410" y="680" width="120" height="60" as="geometry" />
        </mxCell>
        <mxCell id="2VzbFYF5EDdgyUX8YSB1-14" style="edgeStyle=orthogonalEdgeStyle;rounded=0;orthogonalLoop=1;jettySize=auto;html=1;exitX=1;exitY=0.5;exitDx=0;exitDy=0;entryX=0.5;entryY=0;entryDx=0;entryDy=0;" edge="1" parent="1" source="2VzbFYF5EDdgyUX8YSB1-11" target="2VzbFYF5EDdgyUX8YSB1-13">
          <mxGeometry relative="1" as="geometry" />
        </mxCell>
        <mxCell id="2VzbFYF5EDdgyUX8YSB1-18" style="edgeStyle=orthogonalEdgeStyle;rounded=0;orthogonalLoop=1;jettySize=auto;html=1;exitX=0.5;exitY=1;exitDx=0;exitDy=0;entryX=0.5;entryY=0;entryDx=0;entryDy=0;" edge="1" parent="1" source="2VzbFYF5EDdgyUX8YSB1-15" target="2VzbFYF5EDdgyUX8YSB1-9">
          <mxGeometry relative="1" as="geometry">
            <Array as="points">
              <mxPoint x="240" y="860" />
              <mxPoint x="550" y="860" />
              <mxPoint x="550" y="440" />
              <mxPoint x="240" y="440" />
            </Array>
          </mxGeometry>
        </mxCell>
        <mxCell id="2VzbFYF5EDdgyUX8YSB1-15" value="second=second-&amp;gt;next" style="rounded=0;whiteSpace=wrap;html=1;" vertex="1" parent="1">
          <mxGeometry x="170" y="780" width="140" height="60" as="geometry" />
        </mxCell>
        <mxCell id="2VzbFYF5EDdgyUX8YSB1-21" style="edgeStyle=orthogonalEdgeStyle;rounded=0;orthogonalLoop=1;jettySize=auto;html=1;exitX=0.5;exitY=1;exitDx=0;exitDy=0;entryX=0.5;entryY=0;entryDx=0;entryDy=0;" edge="1" parent="1" source="2VzbFYF5EDdgyUX8YSB1-19" target="2VzbFYF5EDdgyUX8YSB1-5">
          <mxGeometry relative="1" as="geometry">
            <Array as="points">
              <mxPoint x="-30" y="900" />
              <mxPoint x="600" y="900" />
              <mxPoint x="600" y="220" />
              <mxPoint x="240" y="220" />
            </Array>
          </mxGeometry>
        </mxCell>
        <mxCell id="2VzbFYF5EDdgyUX8YSB1-19" value="tmp=first-&amp;gt;next&lt;br&gt;swap(list,first,min&lt;br&gt;first=tmp)" style="rounded=0;whiteSpace=wrap;html=1;" vertex="1" parent="1">
          <mxGeometry x="-90" y="590" width="120" height="60" as="geometry" />
        </mxCell>
        <mxCell id="2VzbFYF5EDdgyUX8YSB1-22" value="return" style="ellipse;whiteSpace=wrap;html=1;" vertex="1" parent="1">
          <mxGeometry x="-70" y="370" width="100" height="70" as="geometry" />
        </mxCell>
      </root>
    </mxGraphModel>
  </diagram>
</mxfile>
